<svg xmlns="http://www.w3.org/2000/svg" viewBox="0 0 700 300" font-family="Arial,Helvetica,sans-serif">
  <rect width="700" height="300" fill="#f9f9f9"/>
  <text x="350" y="22" text-anchor="middle" fill="#2c5f2d" font-size="14" font-weight="bold">Community – Autarkie und Kosteneinsparung</text>
  <text x="350" y="38" text-anchor="middle" fill="#666" font-size="10">dynamic_discharge · Luxemburg 2024 · 6 000 Haushalte · 5 MW Solar + 5 MW Wind</text>

  <!-- LEFT: Spot-Kosten (Reststrom-Einkauf) -->
  <text x="185" y="58" text-anchor="middle" fill="#333" font-size="11" font-weight="bold">Netzstrombezug [T€/Jahr]</text>
  <line x1="60"  y1="240" x2="60"  y2="65" stroke="#999" stroke-width="1"/>
  <line x1="60"  y1="240" x2="320" y2="240" stroke="#999" stroke-width="1"/>

  <!-- Y: 0–600 T€, 175px range → 1 T€ = 0.292 px; y = 240 - value*0.292 -->
  <text x="54" y="244" text-anchor="end" fill="#666" font-size="9">0</text>
  <text x="54" y="186" text-anchor="end" fill="#666" font-size="9">200</text>
  <text x="54" y="128" text-anchor="end" fill="#666" font-size="9">400</text>
  <text x="54" y="70"  text-anchor="end" fill="#666" font-size="9">600</text>
  <line x1="60" y1="186" x2="320" y2="186" stroke="#eee" stroke-width="1"/>
  <line x1="60" y1="128" x2="320" y2="128" stroke="#eee" stroke-width="1"/>
  <line x1="60" y1="70"  x2="320" y2="70"  stroke="#eee" stroke-width="1"/>

  <!-- no renew: 1394 T€ → capped, arrow -->
  <!-- no bat:   503 T€ → 503*0.292=146.9 → y=93.1 -->
  <!-- 0.1 MWh:  501 T€ → 146.3 → y=93.7 -->
  <!-- 1 MWh:    481 T€ → 140.5 → y=99.5 -->
  <!-- 5 MWh:    431 T€ → 125.8 → y=114.2 -->
  <!-- 10 MWh:   417 T€ → 121.8 → y=118.2 -->
  <!-- 20 MWh:   416 T€ → 121.5 → y=118.5 -->

  <!-- no renew bar (capped) -->
  <rect x="68" y="70" width="28" height="170" fill="#e74c3c" stroke="#c0392b" stroke-width="1"/>
  <text x="82" y="66" text-anchor="middle" fill="#c0392b" font-size="7">1394 T€</text>
  <!-- no bat: 503 T€ -->
  <rect x="104" y="93" width="28" height="147" fill="#e67e22" stroke="#d35400" stroke-width="1"/>
  <!-- batteries (spot cost, gently decreasing) -->
  <rect x="140" y="94"  width="28" height="146" fill="#2ecc71" stroke="#27ae60" stroke-width="1"/>
  <rect x="176" y="100" width="28" height="140" fill="#2ecc71" stroke="#27ae60" stroke-width="1"/>
  <rect x="212" y="114" width="28" height="126" fill="#2ecc71" stroke="#27ae60" stroke-width="1"/>
  <rect x="248" y="118" width="28" height="122" fill="#2ecc71" stroke="#27ae60" stroke-width="1"/>
  <rect x="284" y="118" width="28" height="122" fill="#2ecc71" stroke="#27ae60" stroke-width="1"/>

  <text x="82"  y="260" text-anchor="middle" fill="#555" font-size="8">kein EE</text>
  <text x="118" y="260" text-anchor="middle" fill="#555" font-size="8">kein Sp.</text>
  <text x="154" y="260" text-anchor="middle" fill="#555" font-size="8">0.1</text>
  <text x="190" y="260" text-anchor="middle" fill="#555" font-size="8">1</text>
  <text x="226" y="260" text-anchor="middle" fill="#555" font-size="8">5</text>
  <text x="262" y="260" text-anchor="middle" fill="#555" font-size="8">10</text>
  <text x="298" y="260" text-anchor="middle" fill="#555" font-size="8">20</text>
  <text x="185" y="276" text-anchor="middle" fill="#666" font-size="9">Kapazität [MWh]</text>

  <!-- RIGHT: Grenznutzen (sp €/kWh) -->
  <text x="530" y="58" text-anchor="middle" fill="#333" font-size="11" font-weight="bold">Grenznutzen [€/kWh]</text>
  <line x1="400" y1="240" x2="400" y2="65" stroke="#999" stroke-width="1"/>
  <line x1="400" y1="240" x2="660" y2="240" stroke="#999" stroke-width="1"/>

  <!-- Y: 0–25 €/kWh, 175px range → 1 €/kWh = 7px; y = 240 - value*7 -->
  <text x="394" y="244" text-anchor="end" fill="#666" font-size="9">0</text>
  <text x="394" y="186" text-anchor="end" fill="#666" font-size="9">8</text>
  <text x="394" y="128" text-anchor="end" fill="#666" font-size="9">16</text>
  <text x="394" y="70"  text-anchor="end" fill="#666" font-size="9">24</text>
  <line x1="400" y1="186" x2="660" y2="186" stroke="#eee" stroke-width="1"/>
  <line x1="400" y1="128" x2="660" y2="128" stroke="#eee" stroke-width="1"/>
  <line x1="400" y1="70"  x2="660" y2="70"  stroke="#eee" stroke-width="1"/>

  <!-- no renew: 0 (no renew, no sp €/kWh) -->
  <!-- no bat:   0 -->
  <!-- 0.1 MWh:  23.54 → 164.8 → y=75.2 -->
  <!-- 1 MWh:    21.86 → 153.0 → y=87.0 -->
  <!-- 5 MWh:    14.49 → 101.4 → y=138.6 -->
  <!-- 10 MWh:    8.64 →  60.5 → y=179.5 -->
  <!-- 20 MWh:    4.38 →  30.7 → y=209.3 -->

  <rect x="408" y="240" width="28" height="0"   fill="#e74c3c" stroke="#c0392b" stroke-width="1"/>
  <rect x="436" y="240" width="28" height="0"   fill="#e67e22" stroke="#d35400" stroke-width="1"/>
  <rect x="464" y="75"  width="28" height="165" fill="#2ecc71" stroke="#27ae60" stroke-width="1"/>
  <rect x="492" y="87"  width="28" height="153" fill="#2ecc71" stroke="#27ae60" stroke-width="1"/>
  <rect x="520" y="139" width="28" height="101" fill="#2ecc71" stroke="#27ae60" stroke-width="1"/>
  <rect x="548" y="179" width="28" height="61"  fill="#2ecc71" stroke="#27ae60" stroke-width="1"/>
  <rect x="576" y="209" width="28" height="31"  fill="#2ecc71" stroke="#27ae60" stroke-width="1"/>

  <text x="422" y="260" text-anchor="middle" fill="#555" font-size="8">kein EE</text>
  <text x="450" y="260" text-anchor="middle" fill="#555" font-size="8">kein Sp.</text>
  <text x="478" y="260" text-anchor="middle" fill="#555" font-size="8">0.1</text>
  <text x="506" y="260" text-anchor="middle" fill="#555" font-size="8">1</text>
  <text x="534" y="260" text-anchor="middle" fill="#555" font-size="8">5</text>
  <text x="562" y="260" text-anchor="middle" fill="#555" font-size="8">10</text>
  <text x="590" y="260" text-anchor="middle" fill="#555" font-size="8">20</text>
  <text x="505" y="276" text-anchor="middle" fill="#666" font-size="9">Kapazität [MWh]</text>

  <text x="350" y="295" text-anchor="middle" fill="#555" font-size="9">Grenznutzen: 0,1 MWh → 23,5 €/kWh · 1 MWh → 21,9 €/kWh · 10 MWh → 8,6 €/kWh</text>
</svg>
